<?xml version="1.0" standalone="no"?>
<!DOCTYPE svg PUBLIC "-//W3C//DTD SVG 20010904//EN"
 "http://www.w3.org/TR/2001/REC-SVG-20010904/DTD/svg10.dtd">
<svg version="1.0" xmlns="http://www.w3.org/2000/svg"
 width="512.000000pt" height="512.000000pt" viewBox="0 0 512.000000 512.000000"
 preserveAspectRatio="xMidYMid meet">
<metadata>
Created by potrace 1.16, written by Peter Selinger 2001-2019
</metadata>
<g transform="translate(0.000000,512.000000) scale(0.100000,-0.100000)"
fill="#000000" stroke="none">
<path d="M1190 4089 c-331 -42 -642 -189 -855 -403 -66 -67 -99 -109 -123
-158 -35 -72 -62 -177 -62 -243 0 -69 28 -177 66 -253 l36 -73 -27 -35 c-65
-85 -72 -205 -17 -294 l30 -49 -19 -38 c-24 -47 -24 -96 0 -149 51 -112 235
-170 442 -139 161 24 152 26 239 -65 95 -99 175 -141 285 -148 91 -6 162 14
242 68 34 22 71 40 83 40 15 0 47 -22 86 -60 74 -71 154 -111 239 -119 114
-12 217 20 303 92 58 49 82 47 145 -8 102 -89 225 -128 338 -107 80 15 134 42
203 102 36 31 67 50 82 50 14 0 52 -21 89 -49 78 -60 142 -82 235 -82 128 0
214 39 306 137 26 28 49 44 64 44 13 0 51 -18 84 -39 84 -54 161 -75 252 -68
106 8 171 42 273 145 l85 84 60 -5 c34 -4 94 -11 134 -17 75 -12 177 -3 238
20 35 14 52 -2 64 -56 22 -92 6 -190 -38 -238 -56 -60 96 -56 -2198 -56 -2343
0 -2145 -6 -2201 67 -22 28 -28 49 -33 115 -7 97 -22 115 -95 109 -39 -4 -55
-38 -55 -117 0 -135 62 -239 175 -294 l50 -25 2042 -3 2043 -2 7 -28 c15 -51
7 -145 -17 -207 -43 -111 -165 -208 -295 -235 -34 -7 -574 -9 -1650 -8 l-1600
3 -54 23 c-120 51 -201 138 -241 258 -13 38 -30 69 -41 75 -33 17 -80 7 -102
-23 -20 -27 -20 -29 -3 -90 53 -191 208 -336 409 -383 59 -14 259 -15 1694
-13 l1628 3 66 26 c98 38 157 76 220 140 102 104 160 263 145 399 l-7 57 46 6
c89 13 186 83 229 165 45 87 45 281 0 382 -21 46 -24 62 -15 78 16 30 13 116
-5 155 -15 32 -15 35 9 71 58 85 55 208 -8 291 l-34 43 34 64 c51 96 68 175
62 288 -8 159 -60 267 -184 386 -168 162 -405 291 -648 354 -291 75 -626 64
-909 -31 l-88 -29 -107 34 c-178 57 -279 71 -501 70 -209 0 -305 -14 -481 -70
l-80 -25 -77 25 c-206 68 -475 93 -692 65z m473 -164 c48 -9 87 -20 87 -24 -1
-3 -37 -28 -82 -56 -152 -94 -338 -300 -338 -375 0 -54 52 -90 103 -71 14 6
38 34 57 68 85 151 344 330 597 412 250 82 549 92 796 28 l48 -12 -88 -60
c-121 -82 -232 -194 -271 -274 -38 -77 -40 -104 -7 -136 47 -48 97 -27 139 59
57 117 262 271 477 360 502 206 1116 99 1486 -260 88 -86 133 -171 141 -270
13 -165 -87 -333 -248 -414 -127 -64 4 -60 -1997 -60 -1283 0 -1838 3 -1875
11 -241 50 -416 278 -378 491 22 117 83 204 225 317 177 141 398 236 641 276
115 19 366 13 487 -10z m-1257 -1116 c24 -16 73 -44 108 -60 117 -55 159 -59
639 -59 240 0 437 -4 437 -8 0 -5 -20 -23 -45 -41 -238 -171 -744 -196 -1050
-52 -140 65 -199 146 -161 220 9 17 19 31 22 31 3 0 25 -14 50 -31z m4375 -7
c23 -45 13 -79 -41 -133 -87 -87 -269 -150 -491 -169 -264 -23 -561 42 -694
152 l-39 33 469 5 470 5 82 28 c45 15 110 47 145 71 35 24 68 43 73 42 6 -1
17 -16 26 -34z m-1621 -137 c-37 -40 -174 -105 -274 -130 -284 -72 -624 -45
-837 67 -31 16 -69 43 -85 59 l-28 29 624 0 623 0 -23 -25z m-1301 -117 c142
-128 395 -200 701 -201 375 0 679 116 772 297 l15 28 26 -45 c52 -88 167 -165
322 -215 98 -32 251 -62 324 -63 25 0 64 -3 85 -7 l40 -7 -51 -51 c-57 -57
-108 -85 -169 -92 -55 -6 -106 12 -176 61 -48 34 -67 41 -118 45 -85 6 -137
-16 -210 -89 -67 -69 -112 -90 -185 -90 -59 0 -114 23 -169 71 -47 42 -96 60
-161 60 -65 0 -117 -23 -178 -79 -113 -104 -228 -104 -340 -1 -67 61 -110 80
-182 80 -62 0 -113 -21 -169 -70 -69 -61 -162 -79 -241 -46 -21 9 -67 44 -101
77 -73 70 -114 89 -187 89 -54 0 -83 -12 -183 -74 -98 -62 -213 -39 -304 60
-23 25 -40 47 -38 50 2 2 58 8 124 14 255 22 466 100 581 215 34 34 65 75 69
90 l7 28 23 -45 c13 -25 45 -65 73 -90z"/>
</g>
</svg>
