<?xml version="1.0" standalone="no"?>
<!DOCTYPE svg PUBLIC "-//W3C//DTD SVG 20010904//EN"
 "http://www.w3.org/TR/2001/REC-SVG-20010904/DTD/svg10.dtd">
<svg version="1.0" xmlns="http://www.w3.org/2000/svg"
 width="512.000000pt" height="512.000000pt" viewBox="0 0 512.000000 512.000000"
 preserveAspectRatio="xMidYMid meet">
<metadata>
Created by potrace 1.16, written by Peter Selinger 2001-2019
</metadata>
<g transform="translate(0.000000,512.000000) scale(0.100000,-0.100000)"
fill="#000000" stroke="none">
<path d="M1060 4841 c-221 -48 -435 -179 -575 -354 -80 -98 -166 -267 -197
-387 l-23 -85 0 -1455 0 -1455 22 -83 c46 -171 144 -342 269 -466 124 -125
295 -223 466 -269 l83 -22 1455 0 1455 0 83 22 c171 46 342 144 466 269 125
124 223 295 269 466 l22 83 0 1455 0 1455 -22 83 c-46 171 -144 342 -269 466
-121 122 -289 220 -460 269 l-79 22 -1440 2 c-1361 2 -1445 1 -1525 -16z
m2306 -906 c329 -58 607 -108 616 -111 51 -16 48 56 48 -1262 0 -675 -4 -1232
-8 -1238 -4 -6 -16 -16 -27 -21 -11 -6 -296 -59 -632 -119 -717 -125 -650
-127 -655 14 l-3 87 -364 87 c-218 53 -372 95 -383 105 -16 14 -18 34 -18 166
0 126 3 153 17 169 20 22 51 23 75 1 16 -14 18 -33 18 -137 l0 -121 313 -75
c171 -40 320 -76 330 -78 16 -4 17 56 17 1153 0 1097 -1 1157 -17 1153 -10 -3
-159 -38 -330 -79 l-313 -74 0 -132 c0 -120 -2 -135 -20 -153 -11 -11 -27 -20
-35 -20 -8 0 -24 9 -35 20 -18 18 -20 33 -20 183 0 149 2 166 19 181 12 11
154 50 383 105 l363 88 5 97 c5 95 13 115 46 116 6 0 280 -47 610 -105z
m-1802 -889 c48 -36 74 -79 82 -134 6 -39 -2 -71 -34 -144 -2 -5 108 -8 245
-8 142 0 264 -5 286 -11 69 -19 128 -85 142 -160 16 -85 -54 -194 -140 -218
-24 -7 -137 -11 -289 -11 -232 0 -248 -1 -241 -17 42 -98 41 -144 -2 -210 -52
-81 -148 -113 -236 -79 -59 22 -507 470 -507 506 0 18 56 80 218 243 119 121
237 233 262 249 40 26 52 29 111 26 54 -3 73 -9 103 -32z"/>
</g>
</svg>
